<svg width="22" height="20" viewBox="0 0 22 20" fill="none" xmlns="http://www.w3.org/2000/svg">
<path d="M15.1 10.5L13.65 9.05C13.8 8.26667 13.575 7.53333 12.975 6.85C12.375 6.16667 11.6 5.9 10.65 6.05L9.2 4.6C9.48333 4.46667 9.771 4.36667 10.063 4.3C10.355 4.23333 10.6673 4.2 11 4.2C12.25 4.2 13.3127 4.63767 14.188 5.513C15.0633 6.38833 15.5007 7.45067 15.5 8.7C15.5 9.03333 15.4667 9.346 15.4 9.638C15.3333 9.93 15.2333 10.2173 15.1 10.5ZM18.3 13.65L16.85 12.25C17.4833 11.7667 18.046 11.2377 18.538 10.663C19.03 10.0883 19.4507 9.434 19.8 8.7C18.9667 7.01667 17.7707 5.67933 16.212 4.688C14.6533 3.69667 12.916 3.20067 11 3.2C10.5167 3.2 10.0417 3.23333 9.575 3.3C9.10833 3.36667 8.65 3.46667 8.2 3.6L6.65 2.05C7.33333 1.76667 8.03333 1.554 8.75 1.412C9.46667 1.27 10.2167 1.19933 11 1.2C13.5167 1.2 15.7583 1.89567 17.725 3.287C19.6917 4.67833 21.1167 6.48267 22 8.7C21.6167 9.68333 21.1123 10.596 20.487 11.438C19.8617 12.28 19.1327 13.0173 18.3 13.65ZM18.8 19.8L14.6 15.65C14.0167 15.8333 13.4293 15.971 12.838 16.063C12.2467 16.155 11.634 16.2007 11 16.2C8.48333 16.2 6.24167 15.5043 4.275 14.113C2.30833 12.7217 0.883333 10.9173 0 8.7C0.35 7.81667 0.791667 6.99567 1.325 6.237C1.85833 5.47833 2.46667 4.79933 3.15 4.2L0.4 1.4L1.8 0L20.2 18.4L18.8 19.8ZM4.55 5.6C4.06667 6.03333 3.625 6.50833 3.225 7.025C2.825 7.54167 2.48333 8.1 2.2 8.7C3.03333 10.3833 4.22933 11.721 5.788 12.713C7.34667 13.705 9.084 14.2007 11 14.2C11.3333 14.2 11.6583 14.1793 11.975 14.138C12.2917 14.0967 12.6167 14.0507 12.95 14L12.05 13.05C11.8667 13.1 11.6917 13.1377 11.525 13.163C11.3583 13.1883 11.1833 13.2007 11 13.2C9.75 13.2 8.68733 12.7627 7.812 11.888C6.93667 11.0133 6.49933 9.95067 6.5 8.7C6.5 8.51667 6.51267 8.34167 6.538 8.175C6.56333 8.00833 6.60067 7.83333 6.65 7.65L4.55 5.6Z" fill="#265355"/>
</svg>
